<?xml version="1.0" standalone="no"?>
<!DOCTYPE svg PUBLIC "-//W3C//DTD SVG 20010904//EN"
 "http://www.w3.org/TR/2001/REC-SVG-20010904/DTD/svg10.dtd">
<svg version="1.0" xmlns="http://www.w3.org/2000/svg"
 width="1024.000000pt" height="1024.000000pt" viewBox="0 0 1024.000000 1024.000000"
 preserveAspectRatio="xMidYMid meet">

<g transform="translate(0.000000,1024.000000) scale(0.100000,-0.100000)"
fill="#000000" stroke="none">
<path d="M0 5120 l0 -5120 5120 0 5120 0 0 5120 0 5120 -5120 0 -5120 0 0
-5120z m9310 670 l0 -1680 -600 0 -600 0 0 25 0 25 580 0 580 0 0 1630 0 1630
-4170 0 -4170 0 0 -1630 0 -1630 2020 0 2020 0 0 -25 0 -25 -2045 0 -2045 0 0
1680 0 1680 4215 0 4215 0 0 -1680z m-4889 451 c31 -12 73 -36 94 -54 l38 -33
-23 -32 c-13 -18 -29 -32 -34 -32 -6 0 -43 16 -82 36 -61 31 -81 36 -141 36
-142 1 -245 -65 -293 -188 -33 -83 -34 -234 -2 -315 30 -75 81 -132 149 -165
48 -24 69 -28 137 -27 87 0 167 26 202 64 24 26 46 24 78 -10 l27 -28 -38 -33
c-20 -18 -67 -47 -103 -64 -61 -29 -73 -31 -175 -30 -138 0 -199 21 -283 99
-68 63 -106 127 -127 216 -52 223 35 452 208 540 103 53 258 62 368 20z m1491
-4 c84 -41 93 -51 78 -86 -21 -53 -33 -55 -93 -21 -134 75 -282 34 -294 -82
-8 -84 29 -115 219 -183 97 -34 151 -72 179 -127 31 -61 24 -176 -15 -242 -88
-151 -326 -180 -489 -60 l-48 35 18 31 c31 53 44 55 102 15 29 -20 69 -41 89
-47 142 -39 261 39 250 162 -7 64 -33 91 -122 124 -211 78 -246 99 -277 169
-22 47 -24 120 -7 179 17 56 89 127 153 149 72 25 187 17 257 -16z m-3857 8
c119 -31 177 -101 177 -214 0 -33 -7 -71 -15 -88 -19 -36 -79 -90 -116 -105
l-26 -11 25 -7 c50 -14 109 -50 129 -78 64 -90 37 -238 -55 -308 -66 -51 -136
-64 -345 -64 l-189 0 0 445 0 445 178 0 c128 0 194 -4 237 -15z m505 -380 l0
-395 190 0 190 0 0 -50 0 -50 -250 0 -250 0 0 445 0 445 60 0 60 0 0 -395z
m920 288 c24 -60 103 -260 176 -446 74 -186 134 -340 134 -341 0 -6 -108 2
-118 8 -5 3 -29 57 -53 121 l-44 115 -199 -2 -199 -3 -41 -107 c-23 -59 -47
-113 -53 -119 -7 -7 -35 -14 -64 -16 -50 -4 -51 -3 -46 19 4 13 82 215 174
450 l168 427 62 1 61 0 42 -107z m1340 -88 l0 -195 40 0 c49 0 54 5 232 210
74 85 142 161 151 168 10 8 37 12 76 10 l61 -3 -176 -200 c-96 -110 -182 -204
-191 -209 -14 -8 -14 -10 4 -20 19 -10 383 -439 383 -451 0 -3 -29 -5 -64 -5
l-64 0 -171 199 c-95 110 -181 201 -194 205 -12 3 -37 6 -54 6 l-33 0 0 -205
0 -205 -60 0 -60 0 0 445 0 445 60 0 60 0 0 -195z m1623 -40 c71 -126 148
-267 172 -313 37 -72 44 -80 50 -61 4 12 79 155 167 316 l161 293 58 0 59 0 0
-445 0 -445 -50 0 -50 0 -2 352 -3 353 -155 -285 -155 -285 -40 0 -40 0 -156
283 c-86 155 -158 284 -160 286 -2 3 -3 -155 -1 -350 l2 -354 -55 0 -55 0 0
445 0 446 62 -3 62 -3 129 -230z m1007 -210 l0 -445 -60 0 -60 0 0 445 0 445
60 0 60 0 0 -445z m733 416 c112 -44 191 -127 238 -251 32 -81 32 -241 0 -329
-43 -121 -124 -207 -238 -252 -53 -21 -79 -23 -280 -27 l-223 -4 0 447 0 447
223 -4 c201 -4 227 -6 280 -27z m-2455 -1655 c38 -21 62 -66 62 -118 l0 -48
53 0 c28 0 57 4 63 8 6 4 19 30 28 59 20 59 35 76 68 71 21 -3 23 -8 22 -59
l-1 -57 52 -6 c76 -9 115 -25 115 -47 0 -17 -7 -18 -92 -13 l-93 6 -18 -63
c-10 -35 -36 -109 -58 -165 -42 -108 -48 -154 -23 -178 31 -32 56 -19 144 72
47 49 90 99 97 113 6 13 19 41 28 62 13 27 26 39 49 46 17 4 34 6 37 5 4 -2
-8 -51 -27 -109 -19 -57 -34 -118 -34 -134 0 -61 56 -80 108 -36 26 21 30 33
34 92 8 94 41 179 73 185 13 3 29 2 35 -2 16 -10 3 -91 -27 -168 -37 -95 -16
-156 42 -118 27 18 113 120 190 226 31 42 90 80 126 80 25 0 61 -30 72 -60 6
-19 9 -13 37 105 43 183 59 224 86 231 37 9 54 -11 54 -66 0 -92 -57 -263
-124 -368 -20 -32 -27 -57 -29 -104 -2 -60 -1 -63 23 -66 34 -5 215 184 225
235 8 44 46 83 80 83 14 0 25 -2 25 -5 0 -3 -16 -58 -35 -122 -41 -133 -42
-176 -7 -181 31 -5 174 139 219 220 39 69 65 88 118 88 68 0 115 -51 115 -125
0 -23 5 -35 13 -35 16 0 131 73 141 89 10 16 26 14 26 -3 0 -19 -72 -80 -135
-117 -37 -21 -54 -38 -64 -64 -26 -72 -90 -125 -151 -125 -64 0 -100 45 -100
125 l0 46 -62 -66 c-60 -65 -102 -95 -132 -95 -8 0 -29 12 -46 27 -31 25 -31
28 -28 100 l3 73 -20 -27 c-63 -89 -171 -183 -210 -183 -26 0 -51 25 -60 62
l-7 27 -44 -34 c-55 -43 -97 -52 -130 -30 -30 19 -44 53 -44 103 l0 37 -28
-35 c-39 -51 -93 -98 -122 -109 -32 -11 -70 3 -77 29 -7 26 -11 25 -44 -6 -54
-52 -152 -38 -179 25 -6 17 -10 51 -8 76 l3 46 -19 -28 c-11 -15 -50 -58 -86
-95 -79 -81 -111 -88 -162 -37 -30 30 -31 31 -25 107 4 42 18 133 32 201 14
68 25 124 25 125 0 0 -28 1 -62 1 -47 1 -67 -4 -80 -17 -15 -15 -88 -27 -88
-14 0 2 9 23 20 47 33 75 23 162 -20 170 -46 9 -127 -39 -161 -95 -37 -60 -18
-126 60 -212 70 -76 95 -134 95 -214 -1 -199 -148 -341 -283 -272 -44 22 -81
90 -81 147 0 48 25 72 86 82 l34 6 -16 -32 c-32 -64 9 -161 68 -161 64 0 137
123 122 207 -10 55 -39 109 -100 184 -30 36 -61 82 -69 102 -21 51 -19 130 5
176 23 47 92 108 135 120 45 14 137 12 163 -3z m1552 -118 c0 -22 -34 -58 -55
-58 -8 0 -19 9 -25 20 -13 24 -1 51 33 75 20 14 23 14 34 -2 7 -9 13 -25 13
-35z"/>
<path d="M1760 6009 l0 -151 123 3 c133 4 169 16 211 72 28 38 28 126 0 164
-38 52 -76 63 -211 63 l-123 0 0 -151z"/>
<path d="M1760 5620 l0 -150 132 0 c114 0 138 3 176 21 57 28 88 89 78 153
-16 100 -67 125 -253 126 l-133 0 0 -150z"/>
<path d="M3371 6128 c-1 -9 -36 -109 -80 -222 l-78 -206 164 0 c153 0 165 1
158 18 -4 9 -38 100 -77 202 -84 224 -86 231 -87 208z"/>
<path d="M7800 5815 l0 -345 140 0 c163 0 228 18 289 79 133 133 124 440 -16
547 -68 52 -120 64 -273 64 l-140 0 0 -345z"/>
<path d="M6730 4203 c-83 -94 -100 -243 -28 -243 32 0 127 97 134 138 5 24 3
37 -5 40 -6 2 -11 17 -11 33 0 40 -16 69 -39 69 -11 0 -34 -17 -51 -37z"/>
<path d="M7497 4202 c-37 -41 -8 -109 48 -114 29 -3 30 -2 33 44 2 26 -2 56
-8 68 -13 25 -51 26 -73 2z"/>
<path d="M7430 4031 c0 -59 15 -91 43 -91 21 0 56 30 72 61 l16 29 -32 0 c-21
0 -40 10 -61 30 -16 17 -31 30 -34 30 -2 0 -4 -27 -4 -59z"/>
</g>
</svg>
